<?xml version="1.0" encoding="utf-8"?>
<!-- Generator: Adobe Illustrator 22.1.0, SVG Export Plug-In . SVG Version: 6.00 Build 0)  -->
<svg version="1.1" id="Layer_1" xmlns="http://www.w3.org/2000/svg" xmlns:xlink="http://www.w3.org/1999/xlink" x="0px" y="0px"
	 viewBox="0 0 531.3 97.7" style="enable-background:new 0 0 531.3 97.7;" xml:space="preserve">
<style type="text/css">
	.st0{opacity:0.8;}
	.st1{clip-path:url(#SVGID_2_);}
	.st2{opacity:0.8348;clip-path:url(#SVGID_4_);fill:#FFED00;}
	.st3{clip-path:url(#SVGID_6_);}
	.st4{opacity:0.8348;clip-path:url(#SVGID_8_);fill:#B94A95;}
	.st5{clip-path:url(#SVGID_10_);}
	.st6{opacity:0.8283;clip-path:url(#SVGID_12_);fill:#4958A4;}
	.st7{clip-path:url(#SVGID_14_);}
	.st8{opacity:0.8283;clip-path:url(#SVGID_16_);fill:#FFFFFF;}
	.st9{fill:none;stroke:#FFFFFF;stroke-width:0.9;stroke-linecap:round;stroke-miterlimit:10;stroke-dasharray:1,3;}
	.st10{fill:none;stroke:#FFFFFF;stroke-width:0.75;stroke-linecap:round;stroke-linejoin:round;stroke-miterlimit:10;}
	.st11{clip-path:url(#SVGID_18_);}
	.st12{clip-path:url(#SVGID_20_);fill:#6BE682;}
	.st13{clip-path:url(#SVGID_22_);}
	.st14{clip-path:url(#SVGID_24_);fill:#FFFFFF;}
	.st15{clip-path:url(#SVGID_26_);}
	.st16{clip-path:url(#SVGID_28_);fill:#DF6156;}
	.st17{fill:none;}
	.st18{fill:#FFFFFF;}
	.st19{font-family:'Cabin-Regular';}
	.st20{font-size:12px;}
	.st21{fill:none;stroke:#FFFFFF;stroke-width:0.25;stroke-miterlimit:10;stroke-dasharray:1,1;}
</style>
<g>
	<g class="st0">
		<defs>
			<circle id="SVGID_1_" class="st0" cx="222.3" cy="59.6" r="8.4"/>
		</defs>
		<use xlink:href="#SVGID_1_"  style="overflow:visible;fill-rule:evenodd;clip-rule:evenodd;fill:#FFED00;"/>
		<clipPath id="SVGID_2_">
			<use xlink:href="#SVGID_1_"  style="overflow:visible;"/>
		</clipPath>
		<g class="st1">
			<defs>
				<rect id="SVGID_3_" x="-82.9" y="-113.1" width="491.9" height="349.8"/>
			</defs>
			<use xlink:href="#SVGID_3_"  style="overflow:visible;fill:#FFED00;"/>
			<clipPath id="SVGID_4_">
				<use xlink:href="#SVGID_3_"  style="overflow:visible;"/>
			</clipPath>
			<rect x="212.2" y="49.5" class="st2" width="20.2" height="20.2"/>
		</g>
	</g>
	<g class="st0">
		<defs>
			<circle id="SVGID_5_" class="st0" cx="222.3" cy="82.4" r="8.4"/>
		</defs>
		<use xlink:href="#SVGID_5_"  style="overflow:visible;fill-rule:evenodd;clip-rule:evenodd;fill:#B94A95;"/>
		<clipPath id="SVGID_6_">
			<use xlink:href="#SVGID_5_"  style="overflow:visible;"/>
		</clipPath>
		<g class="st3">
			<defs>
				<rect id="SVGID_7_" x="-82.9" y="-90.3" width="491.9" height="349.8"/>
			</defs>
			<use xlink:href="#SVGID_7_"  style="overflow:visible;fill:#B94A95;"/>
			<clipPath id="SVGID_8_">
				<use xlink:href="#SVGID_7_"  style="overflow:visible;"/>
			</clipPath>
			<rect x="212.2" y="72.3" class="st4" width="20.2" height="20.2"/>
		</g>
	</g>
	<g class="st0">
		<defs>
			<circle id="SVGID_9_" class="st0" cx="222.3" cy="36.4" r="8.4"/>
		</defs>
		<use xlink:href="#SVGID_9_"  style="overflow:visible;fill-rule:evenodd;clip-rule:evenodd;fill:#4958A4;"/>
		<clipPath id="SVGID_10_">
			<use xlink:href="#SVGID_9_"  style="overflow:visible;"/>
		</clipPath>
		<g class="st5">
			<defs>
				<rect id="SVGID_11_" x="-298.1" y="-377.6" width="1095.7" height="779.1"/>
			</defs>
			<use xlink:href="#SVGID_11_"  style="overflow:visible;fill:#4958A4;"/>
			<clipPath id="SVGID_12_">
				<use xlink:href="#SVGID_11_"  style="overflow:visible;"/>
			</clipPath>
			<rect x="210.1" y="24.2" class="st6" width="24.3" height="24.3"/>
		</g>
	</g>
	<g class="st0">
		<defs>
			<circle id="SVGID_13_" class="st0" cx="435.9" cy="36.8" r="6.3"/>
		</defs>
		<use xlink:href="#SVGID_13_"  style="overflow:visible;fill-rule:evenodd;clip-rule:evenodd;fill:#FFFFFF;"/>
		<clipPath id="SVGID_14_">
			<use xlink:href="#SVGID_13_"  style="overflow:visible;"/>
		</clipPath>
		<g class="st7">
			<defs>
				<rect id="SVGID_15_" x="42.2" y="-276.3" width="828.7" height="589.3"/>
			</defs>
			<use xlink:href="#SVGID_15_"  style="overflow:visible;fill:#FFFFFF;"/>
			<clipPath id="SVGID_16_">
				<use xlink:href="#SVGID_15_"  style="overflow:visible;"/>
			</clipPath>
			<rect x="426.7" y="27.5" class="st8" width="18.4" height="18.4"/>
		</g>
	</g>
	<line class="st9" x1="6" y1="26.3" x2="6" y2="97.3"/>
	<polyline class="st10" points="427.2,61.4 428.5,60.9 429.4,61.6 430.5,60.8 432,59.7 433.6,59.9 434.8,60.7 436.5,59.1
		437.7,57.4 438.7,58.5 440,60.1 441.2,58.5 442.7,60.3 443.4,61.4 444.6,61.9 	"/>
	<g>
		<defs>
			<polygon id="SVGID_17_" points="6,30.6 12,42.6 0,42.6 			"/>
		</defs>
		<clipPath id="SVGID_18_">
			<use xlink:href="#SVGID_17_"  style="overflow:visible;"/>
		</clipPath>
		<g class="st11">
			<defs>
				<rect id="SVGID_19_" x="-836" y="-449.4" width="1440" height="1024"/>
			</defs>
			<clipPath id="SVGID_20_">
				<use xlink:href="#SVGID_19_"  style="overflow:visible;"/>
			</clipPath>
			<rect x="-5" y="25.6" class="st12" width="22" height="22"/>
		</g>
	</g>
	<g>
		<defs>
			<polygon id="SVGID_21_" points="6,73.6 10.5,82.6 6,91.6 1.5,82.6 			"/>
		</defs>
		<use xlink:href="#SVGID_21_"  style="overflow:visible;fill-rule:evenodd;clip-rule:evenodd;fill:#FFFFFF;"/>
		<clipPath id="SVGID_22_">
			<use xlink:href="#SVGID_21_"  style="overflow:visible;"/>
		</clipPath>
		<g class="st13">
			<defs>
				<rect id="SVGID_23_" x="-712.5" y="-400.4" width="1440" height="1024"/>
			</defs>
			<use xlink:href="#SVGID_23_"  style="overflow:visible;fill:#FFFFFF;"/>
			<clipPath id="SVGID_24_">
				<use xlink:href="#SVGID_23_"  style="overflow:visible;"/>
			</clipPath>
			<rect x="-3.5" y="68.6" class="st14" width="19" height="28"/>
		</g>
	</g>
	<g>
		<defs>
			<polygon id="SVGID_25_" points="6,65.6 12,53.6 0,53.6 			"/>
		</defs>
		<clipPath id="SVGID_26_">
			<use xlink:href="#SVGID_25_"  style="overflow:visible;"/>
		</clipPath>
		<g class="st15">
			<defs>
				<rect id="SVGID_27_" x="-669" y="-426.4" width="1440" height="1024"/>
			</defs>
			<clipPath id="SVGID_28_">
				<use xlink:href="#SVGID_27_"  style="overflow:visible;"/>
			</clipPath>
			<rect x="-5" y="48.6" class="st16" width="22" height="22"/>
		</g>
	</g>
	<g>
		<rect x="0.7" y="1.2" class="st17" width="61.7" height="10.7"/>
		<text transform="matrix(1 0 0 1 0.7315 10.2)" class="st18 st19 st20 legend-title-svg" style="
      font-weight: 600;
    text-transform: uppercase;
    letter-spacing: .1px;
    transform: translate(0.732px, 14.5px);
    ">Legenda</text>
	</g>
	<text transform="matrix(1 0 0 1 239.5816 40.2526)" class="st18 st19 st20">NRC</text>
	<text transform="matrix(1 0 0 1 239.5818 64.5852)" class="st18 st19 st20">Trouw</text>
	<text transform="matrix(1 0 0 1 239.5818 87.2594)" class="st18 st19 st20">Telegraaf</text>
	<text transform="matrix(1 0 0 1 454.2149 40.2526)" class="st18 st19 st20">aantal</text>
	<text transform="matrix(1 0 0 1 454.2149 64.5852)" class="st18 st19 st20">Google trend</text>
	<text transform="matrix(1 0 0 1 23.9114 40.2526)" class="st18 st19 st20">positieve data CBS</text>
	<text transform="matrix(1 0 0 1 23.9114 64.5852)" class="st18 st19 st20">negatieve data CBS</text>
	<text transform="matrix(1 0 0 1 23.9114 87.2594)" class="st18 st19 st20">neutrale data CBS</text>
	<g>
		<g>
			<line class="st21" x1="427.7" y1="44.8" x2="444" y2="28.5"/>
			<g>
				<path class="st18" d="M429.8,44.4c0-0.1-0.1-0.1-0.1-0.1l-1.9,0.4l0.4-1.9c0-0.1,0-0.1-0.1-0.1c-0.1,0-0.1,0-0.1,0.1l-0.5,2.1
					c0,0,0,0.1,0,0.1c0,0,0.1,0,0.1,0l2.1-0.5c0,0,0,0,0.1,0C429.8,44.5,429.8,44.5,429.8,44.4z"/>
			</g>
			<g>
				<path class="st18" d="M443.7,30.5c-0.1,0-0.1-0.1-0.1-0.1l0.4-1.9l-1.9,0.4c-0.1,0-0.1,0-0.1-0.1c0-0.1,0-0.1,0.1-0.1l2.1-0.5
					c0,0,0.1,0,0.1,0s0,0.1,0,0.1l-0.5,2.1c0,0,0,0,0,0.1C443.8,30.5,443.7,30.5,443.7,30.5z"/>
			</g>
		</g>
	</g>
</g>
</svg>
